solid OpenSCAD_Model
  facet normal 0.86246 -0.0906484 0.497941
    outer loop
      vertex 5.7273 5 2.48
      vertex 4.29548 5 4.96
      vertex 4.09235 3.06736 4.96
    endloop
  endfacet
  facet normal 0.86246 -0.0906485 0.497941
    outer loop
      vertex 5.49289 2.76967 2.48
      vertex 5.7273 5 2.48
      vertex 4.09235 3.06736 4.96
    endloop
  endfacet
  facet normal -0.86246 0.0906485 0.497941
    outer loop
      vertex 1.43183 5 4.96
      vertex 9.53674e-06 5 2.48
      vertex -0.109253 3.96044 2.48
    endloop
  endfacet
  facet normal -0.86246 0.0906487 0.497941
    outer loop
      vertex 1.29128 3.66275 4.96
      vertex 1.43183 5 4.96
      vertex -0.109253 3.96044 2.48
    endloop
  endfacet
  facet normal -0.86246 0.0906486 -0.497941
    outer loop
      vertex 1.43183 5 5.22614e-06
      vertex 1.29128 3.66275 5.22614e-06
      vertex 9.53674e-06 5 2.48
    endloop
  endfacet
  facet normal -0.86246 0.0906485 -0.497941
    outer loop
      vertex 9.53674e-06 5 2.48
      vertex 1.29128 3.66275 5.22614e-06
      vertex -0.109253 3.96044 2.48
    endloop
  endfacet
  facet normal 0.86246 -0.0906485 -0.497941
    outer loop
      vertex 5.7273 5 2.48
      vertex 5.49289 2.76967 2.48
      vertex 4.29548 5 5.22614e-06
    endloop
  endfacet
  facet normal 0.86246 -0.0906483 -0.497941
    outer loop
      vertex 4.29548 5 5.22614e-06
      vertex 5.49289 2.76967 2.48
      vertex 4.09235 3.06736 5.22614e-06
    endloop
  endfacet
  facet normal 0.824767 -0.267983 0.497941
    outer loop
      vertex 5.49289 2.76967 2.48
      vertex 4.09235 3.06736 4.96
      vertex 3.49184 1.21919 4.96
    endloop
  endfacet
  facet normal 0.824767 -0.267983 0.497941
    outer loop
      vertex 4.79988 0.636812 2.48
      vertex 5.49289 2.76967 2.48
      vertex 3.49184 1.21919 4.96
    endloop
  endfacet
  facet normal -0.824767 0.267983 0.497941
    outer loop
      vertex 1.29128 3.66275 4.96
      vertex -0.109253 3.96044 2.48
      vertex -0.432264 2.96631 2.48
    endloop
  endfacet
  facet normal -0.824767 0.267983 0.497941
    outer loop
      vertex 0.875772 2.38394 4.96
      vertex 1.29128 3.66275 4.96
      vertex -0.432264 2.96631 2.48
    endloop
  endfacet
  facet normal -0.824767 0.267983 -0.497941
    outer loop
      vertex 1.29128 3.66275 5.22614e-06
      vertex 0.875772 2.38394 5.22614e-06
      vertex -0.109253 3.96044 2.48
    endloop
  endfacet
  facet normal -0.824767 0.267983 -0.497941
    outer loop
      vertex -0.109253 3.96044 2.48
      vertex 0.875772 2.38394 5.22614e-06
      vertex -0.432264 2.96631 2.48
    endloop
  endfacet
  facet normal 0.824767 -0.267983 -0.497941
    outer loop
      vertex 5.49289 2.76967 2.48
      vertex 4.79988 0.636812 2.48
      vertex 4.09235 3.06736 5.22614e-06
    endloop
  endfacet
  facet normal 0.824767 -0.267983 -0.497941
    outer loop
      vertex 4.09235 3.06736 5.22614e-06
      vertex 4.79988 0.636812 2.48
      vertex 3.49184 1.21919 5.22614e-06
    endloop
  endfacet
  facet normal 0.751027 -0.433606 0.497941
    outer loop
      vertex 4.79988 0.636812 2.48
      vertex 3.49184 1.21919 4.96
      vertex 2.5202 -0.463746 4.96
    endloop
  endfacet
  facet normal 0.751027 -0.433605 0.497941
    outer loop
      vertex 3.67857 -1.30535 2.48
      vertex 4.79988 0.636812 2.48
      vertex 2.5202 -0.463746 4.96
    endloop
  endfacet
  facet normal -0.751027 0.433605 0.497941
    outer loop
      vertex 0.875772 2.38394 4.96
      vertex -0.432264 2.96631 2.48
      vertex -0.954907 2.06107 2.48
    endloop
  endfacet
  facet normal -0.751027 0.433605 0.497941
    outer loop
      vertex 0.203463 1.21946 4.96
      vertex 0.875772 2.38394 4.96
      vertex -0.954907 2.06107 2.48
    endloop
  endfacet
  facet normal -0.751027 0.433605 -0.497941
    outer loop
      vertex 0.875772 2.38394 5.22614e-06
      vertex 0.203463 1.21946 5.22614e-06
      vertex -0.432264 2.96631 2.48
    endloop
  endfacet
  facet normal -0.751027 0.433605 -0.497941
    outer loop
      vertex -0.432264 2.96631 2.48
      vertex 0.203463 1.21946 5.22614e-06
      vertex -0.954907 2.06107 2.48
    endloop
  endfacet
  facet normal 0.751027 -0.433605 -0.497941
    outer loop
      vertex 4.79988 0.636812 2.48
      vertex 3.67857 -1.30535 2.48
      vertex 3.49184 1.21919 5.22614e-06
    endloop
  endfacet
  facet normal 0.751027 -0.433605 -0.497941
    outer loop
      vertex 3.49184 1.21919 5.22614e-06
      vertex 3.67857 -1.30535 2.48
      vertex 2.5202 -0.463746 5.22614e-06
    endloop
  endfacet
  facet normal 0.644463 -0.580277 0.497941
    outer loop
      vertex 3.67857 -1.30535 2.48
      vertex 2.5202 -0.463746 4.96
      vertex 1.21989 -1.90789 4.96
    endloop
  endfacet
  facet normal 0.644463 -0.580278 0.497941
    outer loop
      vertex 2.17797 -2.97194 2.48
      vertex 3.67857 -1.30535 2.48
      vertex 1.21989 -1.90789 4.96
    endloop
  endfacet
  facet normal -0.644463 0.580277 0.497941
    outer loop
      vertex 0.203463 1.21946 4.96
      vertex -0.954907 2.06107 2.48
      vertex -1.65434 1.28427 2.48
    endloop
  endfacet
  facet normal -0.644463 0.580277 0.497941
    outer loop
      vertex -0.696263 0.220217 4.96
      vertex 0.203463 1.21946 4.96
      vertex -1.65434 1.28427 2.48
    endloop
  endfacet
  facet normal -0.644463 0.580277 -0.497941
    outer loop
      vertex 0.203463 1.21946 5.22614e-06
      vertex -0.696263 0.220217 5.22614e-06
      vertex -0.954907 2.06107 2.48
    endloop
  endfacet
  facet normal -0.644463 0.580277 -0.497941
    outer loop
      vertex -0.954907 2.06107 2.48
      vertex -0.696263 0.220217 5.22614e-06
      vertex -1.65434 1.28427 2.48
    endloop
  endfacet
  facet normal 0.644463 -0.580277 -0.497941
    outer loop
      vertex 2.5202 -0.463746 5.22614e-06
      vertex 3.67857 -1.30535 2.48
      vertex 2.17797 -2.97194 2.48
    endloop
  endfacet
  facet normal 0.644463 -0.580277 -0.497941
    outer loop
      vertex 2.5202 -0.463746 5.22614e-06
      vertex 2.17797 -2.97194 2.48
      vertex 1.21989 -1.90789 5.22614e-06
    endloop
  endfacet
  facet normal 0.509734 -0.701588 0.497941
    outer loop
      vertex 2.17797 -2.97194 2.48
      vertex 1.21989 -1.90789 4.96
      vertex -0.35226 -3.05012 4.96
    endloop
  endfacet
  facet normal 0.509734 -0.701588 0.497941
    outer loop
      vertex 0.363652 -4.29012 2.48
      vertex 2.17797 -2.97194 2.48
      vertex -0.35226 -3.05012 4.96
    endloop
  endfacet
  facet normal -0.509734 0.701588 0.497941
    outer loop
      vertex -0.696263 0.220217 4.96
      vertex -1.65434 1.28427 2.48
      vertex -2.5 0.669865 2.48
    endloop
  endfacet
  facet normal -0.509734 0.701589 0.497941
    outer loop
      vertex -1.78408 -0.57013 4.96
      vertex -0.696263 0.220217 4.96
      vertex -2.5 0.669865 2.48
    endloop
  endfacet
  facet normal -0.509734 0.701588 -0.497941
    outer loop
      vertex -1.65434 1.28427 2.48
      vertex -0.696263 0.220217 5.22614e-06
      vertex -1.78408 -0.57013 5.22614e-06
    endloop
  endfacet
  facet normal -0.509734 0.701588 -0.497941
    outer loop
      vertex -1.65434 1.28427 2.48
      vertex -1.78408 -0.57013 5.22614e-06
      vertex -2.5 0.669865 2.48
    endloop
  endfacet
  facet normal 0.509734 -0.701588 -0.497941
    outer loop
      vertex 1.21989 -1.90789 5.22614e-06
      vertex 2.17797 -2.97194 2.48
      vertex 0.363652 -4.29012 2.48
    endloop
  endfacet
  facet normal 0.509734 -0.701588 -0.497941
    outer loop
      vertex 1.21989 -1.90789 5.22614e-06
      vertex 0.363652 -4.29012 2.48
      vertex -0.35226 -3.05012 5.22614e-06
    endloop
  endfacet
  facet normal 0.352727 -0.792237 0.497941
    outer loop
      vertex 0.363652 -4.29012 2.48
      vertex -0.35226 -3.05012 4.96
      vertex -2.12754 -3.84053 4.96
    endloop
  endfacet
  facet normal 0.352726 -0.792237 0.497941
    outer loop
      vertex -1.68508 -5.20227 2.48
      vertex 0.363652 -4.29012 2.48
      vertex -2.12754 -3.84053 4.96
    endloop
  endfacet
  facet normal -0.352727 0.792237 0.497941
    outer loop
      vertex -1.78408 -0.57013 4.96
      vertex -2.5 0.669865 2.48
      vertex -3.45491 0.244708 2.48
    endloop
  endfacet
  facet normal -0.352727 0.792237 0.497941
    outer loop
      vertex -3.01245 -1.11704 4.96
      vertex -1.78408 -0.57013 4.96
      vertex -3.45491 0.244708 2.48
    endloop
  endfacet
  facet normal -0.352727 0.792237 -0.497941
    outer loop
      vertex -2.5 0.669865 2.48
      vertex -1.78408 -0.57013 5.22614e-06
      vertex -3.01245 -1.11704 5.22614e-06
    endloop
  endfacet
  facet normal -0.352727 0.792237 -0.497941
    outer loop
      vertex -2.5 0.669865 2.48
      vertex -3.01245 -1.11704 5.22614e-06
      vertex -3.45491 0.244708 2.48
    endloop
  endfacet
  facet normal 0.352726 -0.792237 -0.497941
    outer loop
      vertex -0.35226 -3.05012 5.22614e-06
      vertex 0.363652 -4.29012 2.48
      vertex -1.68508 -5.20227 2.48
    endloop
  endfacet
  facet normal 0.352727 -0.792237 -0.497941
    outer loop
      vertex -0.35226 -3.05012 5.22614e-06
      vertex -1.68508 -5.20227 2.48
      vertex -2.12754 -3.84053 5.22614e-06
    endloop
  endfacet
  facet normal 0.180303 -0.84826 0.497941
    outer loop
      vertex -1.68508 -5.20227 2.48
      vertex -2.12754 -3.84053 4.96
      vertex -4.02836 -4.24456 4.96
    endloop
  endfacet
  facet normal 0.180303 -0.84826 0.497941
    outer loop
      vertex -3.87869 -5.66854 2.48
      vertex -1.68508 -5.20227 2.48
      vertex -4.02836 -4.24456 4.96
    endloop
  endfacet
  facet normal -0.180303 0.84826 0.497941
    outer loop
      vertex -3.01245 -1.11704 4.96
      vertex -3.45491 0.244708 2.48
      vertex -4.47736 0.0273809 2.48
    endloop
  endfacet
  facet normal -0.180303 0.84826 0.497941
    outer loop
      vertex -4.32769 -1.3966 4.96
      vertex -3.01245 -1.11704 4.96
      vertex -4.47736 0.0273809 2.48
    endloop
  endfacet
  facet normal -0.180303 0.84826 -0.497941
    outer loop
      vertex -3.45491 0.244708 2.48
      vertex -3.01245 -1.11704 5.22614e-06
      vertex -4.32769 -1.3966 5.22614e-06
    endloop
  endfacet
  facet normal -0.180303 0.84826 -0.497941
    outer loop
      vertex -3.45491 0.244708 2.48
      vertex -4.32769 -1.3966 5.22614e-06
      vertex -4.47736 0.0273809 2.48
    endloop
  endfacet
  facet normal 0.180303 -0.84826 -0.497941
    outer loop
      vertex -2.12754 -3.84053 5.22614e-06
      vertex -1.68508 -5.20227 2.48
      vertex -3.87869 -5.66854 2.48
    endloop
  endfacet
  facet normal 0.180303 -0.84826 -0.497941
    outer loop
      vertex -2.12754 -3.84053 5.22614e-06
      vertex -3.87869 -5.66854 2.48
      vertex -4.02836 -4.24456 5.22614e-06
    endloop
  endfacet
  facet normal 0 -0.867211 0.497941
    outer loop
      vertex -5 -5.6394 2.53075
      vertex -4.02836 -4.24456 4.96
      vertex -5 -4.24456 4.96
    endloop
  endfacet
  facet normal 0 -0.867211 0.497941
    outer loop
      vertex -3.87869 -5.66854 2.48
      vertex -5 -5.6394 2.53075
      vertex -5 -5.66854 2.48
    endloop
  endfacet
  facet normal -1.39071e-08 -0.867211 0.497941
    outer loop
      vertex -5 -5.6394 2.53075
      vertex -3.87869 -5.66854 2.48
      vertex -4.02836 -4.24456 4.96
    endloop
  endfacet
  facet normal 0 0.867211 0.497941
    outer loop
      vertex -4.47736 0.0273809 2.48
      vertex -5 -1.3966 4.96
      vertex -4.32769 -1.3966 4.96
    endloop
  endfacet
  facet normal 0 0.867211 0.497941
    outer loop
      vertex -5 -1.3966 4.96
      vertex -4.47736 0.0273809 2.48
      vertex -5 0.0273809 2.48
    endloop
  endfacet
  facet normal 0 0.867211 -0.497941
    outer loop
      vertex -5 -1.3966 5.22614e-06
      vertex -4.47736 0.0273809 2.48
      vertex -4.32769 -1.3966 5.22614e-06
    endloop
  endfacet
  facet normal 0 0.867211 -0.497941
    outer loop
      vertex -4.47736 0.0273809 2.48
      vertex -5 -1.3966 5.22614e-06
      vertex -5 0.0273809 2.48
    endloop
  endfacet
  facet normal 0 -0.867211 -0.497941
    outer loop
      vertex -5 -5.6394 2.42925
      vertex -3.87869 -5.66854 2.48
      vertex -5 -5.66854 2.48
    endloop
  endfacet
  facet normal -0 -0.867211 -0.497941
    outer loop
      vertex -4.02836 -4.24456 5.22614e-06
      vertex -5 -5.6394 2.42925
      vertex -5 -4.24456 5.22614e-06
    endloop
  endfacet
  facet normal -5.39016e-09 -0.867211 -0.497941
    outer loop
      vertex -5 -5.6394 2.42925
      vertex -4.02836 -4.24456 5.22614e-06
      vertex -3.87869 -5.66854 2.48
    endloop
  endfacet
  facet normal -0 0 1
    outer loop
      vertex 1.43183 5 4.96
      vertex 4.29548 5 4.96
      vertex 4.29548 80 4.96
    endloop
  endfacet
  facet normal 0 0 1
    outer loop
      vertex 4.29548 5 4.96
      vertex 1.43183 5 4.96
      vertex 4.09235 3.06736 4.96
    endloop
  endfacet
  facet normal -0 0 1
    outer loop
      vertex 1.29128 3.66275 4.96
      vertex 4.09235 3.06736 4.96
      vertex 1.43183 5 4.96
    endloop
  endfacet
  facet normal 0 0 1
    outer loop
      vertex 1.43183 5 4.96
      vertex 4.29548 80 4.96
      vertex 1.43183 80 4.96
    endloop
  endfacet
  facet normal 0 0 1
    outer loop
      vertex 4.09235 3.06736 4.96
      vertex 1.29128 3.66275 4.96
      vertex 3.49184 1.21919 4.96
    endloop
  endfacet
  facet normal -0 0 1
    outer loop
      vertex 0.875772 2.38394 4.96
      vertex 3.49184 1.21919 4.96
      vertex 1.29128 3.66275 4.96
    endloop
  endfacet
  facet normal 0 0 1
    outer loop
      vertex 3.49184 1.21919 4.96
      vertex 0.875772 2.38394 4.96
      vertex 2.5202 -0.463746 4.96
    endloop
  endfacet
  facet normal -0 0 1
    outer loop
      vertex 0.203463 1.21946 4.96
      vertex 2.5202 -0.463746 4.96
      vertex 0.875772 2.38394 4.96
    endloop
  endfacet
  facet normal 0 0 1
    outer loop
      vertex 2.5202 -0.463746 4.96
      vertex 0.203463 1.21946 4.96
      vertex 1.21989 -1.90789 4.96
    endloop
  endfacet
  facet normal -0 0 1
    outer loop
      vertex -0.696263 0.220217 4.96
      vertex 1.21989 -1.90789 4.96
      vertex 0.203463 1.21946 4.96
    endloop
  endfacet
  facet normal 0 0 1
    outer loop
      vertex 1.21989 -1.90789 4.96
      vertex -0.696263 0.220217 4.96
      vertex -0.35226 -3.05012 4.96
    endloop
  endfacet
  facet normal -0 0 1
    outer loop
      vertex -1.78408 -0.57013 4.96
      vertex -0.35226 -3.05012 4.96
      vertex -0.696263 0.220217 4.96
    endloop
  endfacet
  facet normal 0 0 1
    outer loop
      vertex -1.78408 -0.57013 4.96
      vertex -2.12754 -3.84053 4.96
      vertex -0.35226 -3.05012 4.96
    endloop
  endfacet
  facet normal -0 0 1
    outer loop
      vertex -3.01245 -1.11704 4.96
      vertex -2.12754 -3.84053 4.96
      vertex -1.78408 -0.57013 4.96
    endloop
  endfacet
  facet normal 0 0 1
    outer loop
      vertex -3.01245 -1.11704 4.96
      vertex -4.02836 -4.24456 4.96
      vertex -2.12754 -3.84053 4.96
    endloop
  endfacet
  facet normal -0 0 1
    outer loop
      vertex -4.32769 -1.3966 4.96
      vertex -4.02836 -4.24456 4.96
      vertex -3.01245 -1.11704 4.96
    endloop
  endfacet
  facet normal 0 0 1
    outer loop
      vertex -5 -4.24456 4.96
      vertex -4.32769 -1.3966 4.96
      vertex -5 -1.3966 4.96
    endloop
  endfacet
  facet normal 0 0 1
    outer loop
      vertex -4.32769 -1.3966 4.96
      vertex -5 -4.24456 4.96
      vertex -4.02836 -4.24456 4.96
    endloop
  endfacet
  facet normal 0 0 -1
    outer loop
      vertex 1.29128 3.66275 5.22614e-06
      vertex 4.09235 3.06736 5.22614e-06
      vertex 3.49184 1.21919 5.22614e-06
    endloop
  endfacet
  facet normal 0 0 -1
    outer loop
      vertex 0.875772 2.38394 5.22614e-06
      vertex 3.49184 1.21919 5.22614e-06
      vertex 2.5202 -0.463746 5.22614e-06
    endloop
  endfacet
  facet normal 0 0 -1
    outer loop
      vertex 4.09235 3.06736 5.22614e-06
      vertex 1.29128 3.66275 5.22614e-06
      vertex 4.29548 5 5.22614e-06
    endloop
  endfacet
  facet normal -0 0 -1
    outer loop
      vertex 4.29548 5 5.22614e-06
      vertex 1.29128 3.66275 5.22614e-06
      vertex 1.43183 5 5.22614e-06
    endloop
  endfacet
  facet normal 0 0 -1
    outer loop
      vertex 0.203463 1.21946 5.22614e-06
      vertex 2.5202 -0.463746 5.22614e-06
      vertex 1.21989 -1.90789 5.22614e-06
    endloop
  endfacet
  facet normal 0 0 -1
    outer loop
      vertex 3.49184 1.21919 5.22614e-06
      vertex 0.875772 2.38394 5.22614e-06
      vertex 1.29128 3.66275 5.22614e-06
    endloop
  endfacet
  facet normal 0 0 -1
    outer loop
      vertex 2.5202 -0.463746 5.22614e-06
      vertex 0.203463 1.21946 5.22614e-06
      vertex 0.875772 2.38394 5.22614e-06
    endloop
  endfacet
  facet normal 0 0 -1
    outer loop
      vertex -0.696263 0.220217 5.22614e-06
      vertex 1.21989 -1.90789 5.22614e-06
      vertex -0.35226 -3.05012 5.22614e-06
    endloop
  endfacet
  facet normal 0 0 -1
    outer loop
      vertex 1.21989 -1.90789 5.22614e-06
      vertex -0.696263 0.220217 5.22614e-06
      vertex 0.203463 1.21946 5.22614e-06
    endloop
  endfacet
  facet normal 0 0 -1
    outer loop
      vertex -0.35226 -3.05012 5.22614e-06
      vertex -1.78408 -0.57013 5.22614e-06
      vertex -0.696263 0.220217 5.22614e-06
    endloop
  endfacet
  facet normal 0 0 -1
    outer loop
      vertex -2.12754 -3.84053 5.22614e-06
      vertex -1.78408 -0.57013 5.22614e-06
      vertex -0.35226 -3.05012 5.22614e-06
    endloop
  endfacet
  facet normal 0 0 -1
    outer loop
      vertex -2.12754 -3.84053 5.22614e-06
      vertex -3.01245 -1.11704 5.22614e-06
      vertex -1.78408 -0.57013 5.22614e-06
    endloop
  endfacet
  facet normal 0 0 -1
    outer loop
      vertex -4.02836 -4.24456 5.22614e-06
      vertex -3.01245 -1.11704 5.22614e-06
      vertex -2.12754 -3.84053 5.22614e-06
    endloop
  endfacet
  facet normal 0 0 -1
    outer loop
      vertex -4.02836 -4.24456 5.22614e-06
      vertex -4.32769 -1.3966 5.22614e-06
      vertex -3.01245 -1.11704 5.22614e-06
    endloop
  endfacet
  facet normal 0 0 -1
    outer loop
      vertex -5 -4.24456 5.22614e-06
      vertex -4.32769 -1.3966 5.22614e-06
      vertex -4.02836 -4.24456 5.22614e-06
    endloop
  endfacet
  facet normal 0 0 -1
    outer loop
      vertex -5 -1.43183 5.22614e-06
      vertex -4.32769 -1.3966 5.22614e-06
      vertex -5 -4.24456 5.22614e-06
    endloop
  endfacet
  facet normal -0 0 -1
    outer loop
      vertex -4.32769 -1.3966 5.22614e-06
      vertex -5 -1.43183 5.22614e-06
      vertex -5 -1.3966 5.22614e-06
    endloop
  endfacet
  facet normal -1 0 0
    outer loop
      vertex -5 -1.3966 5.22614e-06
      vertex -5 -9.53674e-06 2.48
      vertex -5 0.0273809 2.48
    endloop
  endfacet
  facet normal -1 0 0
    outer loop
      vertex -5 -9.53674e-06 2.48
      vertex -5 -1.3966 5.22614e-06
      vertex -5 -1.43183 5.22614e-06
    endloop
  endfacet
  facet normal -1 0 0
    outer loop
      vertex -5 -9.53674e-06 2.48
      vertex -5 -1.3966 4.96
      vertex -5 0.0273809 2.48
    endloop
  endfacet
  facet normal -1 0 0
    outer loop
      vertex -5 -1.43183 4.95999
      vertex -5 -1.3966 4.96
      vertex -5 -9.53674e-06 2.48
    endloop
  endfacet
  facet normal -1 -0 0
    outer loop
      vertex -5 -1.3966 4.96
      vertex -5 -1.43183 4.95999
      vertex -5 -4.24456 4.96
    endloop
  endfacet
  facet normal -0 -1 -0
    outer loop
      vertex 1.43183 5 5.22614e-06
      vertex 9.53674e-06 5 2.48
      vertex 1.43183 5 4.27246e-06
    endloop
  endfacet
  facet normal 0 1 0
    outer loop
      vertex 5.7273 80 2.48
      vertex 1.43183 80 4.96
      vertex 4.29548 80 4.96
    endloop
  endfacet
  facet normal 0 1 0
    outer loop
      vertex 5.7273 80 2.48
      vertex 9.53674e-06 80 2.48
      vertex 1.43183 80 4.96
    endloop
  endfacet
  facet normal 0 1 -0
    outer loop
      vertex 4.29548 80 5.22614e-06
      vertex 9.53674e-06 80 2.48
      vertex 5.7273 80 2.48
    endloop
  endfacet
  facet normal 0 1 0
    outer loop
      vertex 9.53674e-06 80 2.48
      vertex 4.29548 80 5.22614e-06
      vertex 1.43183 80 5.22614e-06
    endloop
  endfacet
  facet normal 0 1.27157e-08 -1
    outer loop
      vertex 1.43183 5 4.27246e-06
      vertex 4.29548 80 5.22614e-06
      vertex 4.29548 5 4.27246e-06
    endloop
  endfacet
  facet normal 0 1.27157e-08 -1
    outer loop
      vertex 4.29548 80 5.22614e-06
      vertex 1.43183 5 4.27246e-06
      vertex 1.43183 80 5.22614e-06
    endloop
  endfacet
  facet normal 0 -1 0
    outer loop
      vertex 1.43183 5 4.27246e-06
      vertex 4.29548 5 5.22614e-06
      vertex 1.43183 5 5.22614e-06
    endloop
  endfacet
  facet normal 0 -1 -0
    outer loop
      vertex 4.29548 5 5.22614e-06
      vertex 1.43183 5 4.27246e-06
      vertex 4.29548 5 4.27246e-06
    endloop
  endfacet
  facet normal 0.866026 0 0.499999
    outer loop
      vertex 4.29548 80 4.96
      vertex 5.7273 5 2.48
      vertex 5.7273 80 2.48
    endloop
  endfacet
  facet normal 0.866026 0 0.499999
    outer loop
      vertex 5.7273 5 2.48
      vertex 4.29548 80 4.96
      vertex 4.29548 5 4.96
    endloop
  endfacet
  facet normal 0.866026 0 -0.499999
    outer loop
      vertex 5.7273 5 2.48
      vertex 4.29548 5 4.27246e-06
      vertex 5.7273 80 2.48
    endloop
  endfacet
  facet normal -0.866026 6.35782e-09 -0.499999
    outer loop
      vertex 1.43183 5 4.27246e-06
      vertex 9.53674e-06 80 2.48
      vertex 1.43183 80 5.22614e-06
    endloop
  endfacet
  facet normal -0.866026 0 -0.499999
    outer loop
      vertex 1.43183 5 4.27246e-06
      vertex 9.53674e-06 5 2.48
      vertex 9.53674e-06 80 2.48
    endloop
  endfacet
  facet normal 0.866026 6.35782e-09 -0.499999
    outer loop
      vertex 5.7273 80 2.48
      vertex 4.29548 5 4.27246e-06
      vertex 4.29548 80 5.22614e-06
    endloop
  endfacet
  facet normal 0 -1 0
    outer loop
      vertex 4.29548 5 5.22614e-06
      vertex 4.29548 5 4.27246e-06
      vertex 5.7273 5 2.48
    endloop
  endfacet
  facet normal -0.866026 0 0.499999
    outer loop
      vertex 9.53674e-06 5 2.48
      vertex 1.43183 80 4.96
      vertex 9.53674e-06 80 2.48
    endloop
  endfacet
  facet normal -0.866026 0 0.499999
    outer loop
      vertex 1.43183 80 4.96
      vertex 9.53674e-06 5 2.48
      vertex 1.43183 5 4.96
    endloop
  endfacet
  facet normal -0 3.39057e-07 1
    outer loop
      vertex -28 -1.43183 4.95999
      vertex -5 -4.24456 4.96
      vertex -5 -1.43183 4.95999
    endloop
  endfacet
  facet normal -7.37316e-10 3.33028e-07 1
    outer loop
      vertex -28 -4.29548 4.96
      vertex -5 -4.24456 4.96
      vertex -28 -1.43183 4.95999
    endloop
  endfacet
  facet normal 0 0 1
    outer loop
      vertex -5 -4.24456 4.96
      vertex -28 -4.29548 4.96
      vertex -5 -4.29548 4.96
    endloop
  endfacet
  facet normal 1 -0 0
    outer loop
      vertex -5 -5.7273 2.48
      vertex -5 -5.6394 2.42925
      vertex -5 -5.66854 2.48
    endloop
  endfacet
  facet normal 0 0.866026 0.499999
    outer loop
      vertex -5 -9.53674e-06 2.48
      vertex -28 -1.43183 4.95999
      vertex -5 -1.43183 4.95999
    endloop
  endfacet
  facet normal 0 0.866026 0.499999
    outer loop
      vertex -28 -1.43183 4.95999
      vertex -5 -9.53674e-06 2.48
      vertex -28 -9.53674e-06 2.48
    endloop
  endfacet
  facet normal 1 0 -0
    outer loop
      vertex -5 -5.66854 2.48
      vertex -5 -5.6394 2.53075
      vertex -5 -5.7273 2.48
    endloop
  endfacet
  facet normal 1 -0 3.92581e-07
    outer loop
      vertex -5 -4.29548 4.96
      vertex -5 -5.6394 2.53075
      vertex -5 -4.24456 4.96
    endloop
  endfacet
  facet normal 1 -3.33027e-07 5.7682e-07
    outer loop
      vertex -5 -5.6394 2.53075
      vertex -5 -4.29548 4.96
      vertex -5 -5.7273 2.48
    endloop
  endfacet
  facet normal 0 -0.866026 -0.499999
    outer loop
      vertex -28 -4.29548 5.22614e-06
      vertex -5 -5.7273 2.48
      vertex -28 -5.7273 2.48
    endloop
  endfacet
  facet normal 0 -0.866026 -0.499999
    outer loop
      vertex -5 -5.7273 2.48
      vertex -28 -4.29548 5.22614e-06
      vertex -5 -4.29548 5.22614e-06
    endloop
  endfacet
  facet normal 0 -0.866026 0.499999
    outer loop
      vertex -28 -5.7273 2.48
      vertex -5 -4.29548 4.96
      vertex -28 -4.29548 4.96
    endloop
  endfacet
  facet normal 0 -0.866026 0.499999
    outer loop
      vertex -5 -4.29548 4.96
      vertex -28 -5.7273 2.48
      vertex -5 -5.7273 2.48
    endloop
  endfacet
  facet normal -1 0 0
    outer loop
      vertex -28 -1.43183 4.27246e-06
      vertex -28 -1.43183 4.95999
      vertex -28 -9.53674e-06 2.48
    endloop
  endfacet
  facet normal -1 0 0
    outer loop
      vertex -28 -4.29548 5.22614e-06
      vertex -28 -1.43183 4.95999
      vertex -28 -1.43183 4.27246e-06
    endloop
  endfacet
  facet normal -1 0 0
    outer loop
      vertex -28 -4.29548 5.22614e-06
      vertex -28 -4.29548 4.96
      vertex -28 -1.43183 4.95999
    endloop
  endfacet
  facet normal -1 0 -0
    outer loop
      vertex -28 -4.29548 4.96
      vertex -28 -4.29548 5.22614e-06
      vertex -28 -5.7273 2.48
    endloop
  endfacet
  facet normal 0 0.866026 -0.499999
    outer loop
      vertex -5 -1.43183 5.22614e-06
      vertex -28 -9.53674e-06 2.48
      vertex -5 -9.53674e-06 2.48
    endloop
  endfacet
  facet normal 0 0.847998 -0.529999
    outer loop
      vertex -28 -1.43183 4.27246e-06
      vertex -5 -1.43183 5.22614e-06
      vertex -5 -1.43183 4.27246e-06
    endloop
  endfacet
  facet normal -1.71109e-09 0.866026 -0.499999
    outer loop
      vertex -5 -1.43183 5.22614e-06
      vertex -28 -1.43183 4.27246e-06
      vertex -28 -9.53674e-06 2.48
    endloop
  endfacet
  facet normal 0 -3.33028e-07 -1
    outer loop
      vertex -28 -4.29548 5.22614e-06
      vertex -5 -1.43183 4.27246e-06
      vertex -5 -4.29548 5.22614e-06
    endloop
  endfacet
  facet normal -0 -3.33028e-07 -1
    outer loop
      vertex -5 -1.43183 4.27246e-06
      vertex -28 -4.29548 5.22614e-06
      vertex -28 -1.43183 4.27246e-06
    endloop
  endfacet
  facet normal 1 -0 0
    outer loop
      vertex -5 -4.24456 5.22614e-06
      vertex -5 -1.43183 4.27246e-06
      vertex -5 -1.43183 5.22614e-06
    endloop
  endfacet
  facet normal 1 0 0
    outer loop
      vertex -5 -4.24456 5.22614e-06
      vertex -5 -4.29548 5.22614e-06
      vertex -5 -1.43183 4.27246e-06
    endloop
  endfacet
  facet normal 1 0 -3.92581e-07
    outer loop
      vertex -5 -5.6394 2.42925
      vertex -5 -4.29548 5.22614e-06
      vertex -5 -4.24456 5.22614e-06
    endloop
  endfacet
  facet normal 1 -3.33028e-07 -5.7682e-07
    outer loop
      vertex -5 -4.29548 5.22614e-06
      vertex -5 -5.6394 2.42925
      vertex -5 -5.7273 2.48
    endloop
  endfacet
endsolid OpenSCAD_Model
